<svg width="386" height="331" viewBox="0 0 386 331" fill="none" xmlns="http://www.w3.org/2000/svg">
<path d="M255.5 194.006L223 229.507C223 229.507 221 234.007 224 236.007C224.831 236.561 226.508 237.884 228.498 239.507L236.999 246.601C239.32 248.567 241 250.006 241 250.006C243.539 250.941 244.986 251.273 248 248.506L277 215.506C278.415 212.58 277.986 211.276 277 209.006L262 194.506C259.268 192.798 258.232 192.587 255.5 194.006Z" fill="#9D6B4D"/>
<path d="M228.498 239.507L216 253.007L224 260.007L236.999 246.601L228.498 239.507Z" fill="#ECC0A5"/>
<path d="M255.5 194.006L255.269 193.563L255.191 193.604L255.131 193.669L255.5 194.006ZM223 229.507L222.631 229.169L222.576 229.229L222.543 229.303L223 229.507ZM224 236.007L224.277 235.591L224 236.007ZM241 250.006L240.674 250.386L240.743 250.445L240.827 250.476L241 250.006ZM248 248.506L248.338 248.875L248.358 248.857L248.375 248.837L248 248.506ZM277 215.506L277.375 215.837L277.42 215.785L277.45 215.724L277 215.506ZM277 209.006L277.458 208.807L277.419 208.716L277.347 208.647L277 209.006ZM262 194.506L262.347 194.147L262.309 194.11L262.265 194.083L262 194.506ZM234.5 226.506L234.135 226.165L234.121 226.18L234.108 226.196L234.5 226.506ZM233 232.506L232.5 232.529L232.509 232.733L232.659 232.873L233 232.506ZM242 236.007L241.643 235.657L241.562 235.739L241.525 235.849L242 236.007ZM242 240.507L241.549 240.722L241.593 240.815L241.67 240.882L242 240.507ZM216 253.007L215.633 252.667L215.284 253.044L215.671 253.383L216 253.007ZM224 260.007L223.671 260.383L224.028 260.696L224.359 260.355L224 260.007ZM255.131 193.669L222.631 229.169L223.368 229.844L255.868 194.344L255.131 193.669ZM223 229.507C222.543 229.303 222.543 229.304 222.543 229.304C222.543 229.304 222.542 229.304 222.542 229.304C222.542 229.305 222.542 229.305 222.542 229.306C222.541 229.307 222.541 229.308 222.54 229.309C222.539 229.312 222.537 229.317 222.535 229.322C222.53 229.332 222.524 229.347 222.516 229.365C222.501 229.403 222.479 229.456 222.453 229.524C222.401 229.66 222.331 229.854 222.257 230.093C222.109 230.568 221.943 231.229 221.877 231.961C221.745 233.413 221.998 235.273 223.722 236.423L224.277 235.591C223.001 234.74 222.755 233.35 222.873 232.052C222.931 231.409 223.078 230.82 223.212 230.389C223.278 230.174 223.341 230.001 223.386 229.883C223.409 229.824 223.427 229.779 223.44 229.75C223.446 229.735 223.45 229.724 223.453 229.717C223.455 229.714 223.456 229.712 223.456 229.71C223.457 229.71 223.457 229.709 223.457 229.709C223.457 229.709 223.457 229.709 223.457 229.709C223.457 229.709 223.457 229.709 223.457 229.709C223.457 229.709 223.457 229.71 223 229.507ZM240.827 250.476C242.088 250.94 243.195 251.305 244.391 251.14C245.595 250.973 246.803 250.284 248.338 248.875L247.662 248.138C246.183 249.495 245.16 250.024 244.253 250.149C243.337 250.276 242.451 250.008 241.173 249.537L240.827 250.476ZM248.375 248.837L277.375 215.837L276.624 215.176L247.624 248.176L248.375 248.837ZM277.45 215.724C278.178 214.218 278.459 213.073 278.4 211.983C278.341 210.906 277.949 209.936 277.458 208.807L276.541 209.206C277.037 210.346 277.353 211.163 277.401 212.037C277.448 212.898 277.236 213.869 276.55 215.289L277.45 215.724ZM277.347 208.647L262.347 194.147L261.652 194.866L276.652 209.366L277.347 208.647ZM262.265 194.083C260.903 193.231 259.87 192.687 258.797 192.586C257.705 192.483 256.655 192.843 255.269 193.563L255.73 194.45C257.076 193.751 257.91 193.506 258.703 193.581C259.514 193.658 260.365 194.074 261.735 194.93L262.265 194.083ZM256.635 202.165L234.135 226.165L234.865 226.848L257.365 202.848L256.635 202.165ZM234.108 226.196C233.475 226.994 233.021 227.735 232.756 228.723C232.495 229.695 232.427 230.872 232.5 232.529L233.499 232.484C233.427 230.862 233.501 229.806 233.722 228.982C233.939 228.172 234.308 227.553 234.892 226.817L234.108 226.196ZM232.659 232.873C233.564 233.713 234.376 234.192 235.267 234.161C236.135 234.13 236.935 233.616 237.817 232.893L237.183 232.12C236.305 232.84 235.735 233.144 235.232 233.161C234.753 233.178 234.195 232.935 233.34 232.14L232.659 232.873ZM266.143 210.657L241.643 235.657L242.357 236.357L266.857 211.357L266.143 210.657ZM241.525 235.849C241.179 236.896 240.985 237.72 240.984 238.487C240.983 239.27 241.181 239.954 241.549 240.722L242.451 240.291C242.126 239.613 241.983 239.079 241.984 238.489C241.985 237.884 242.138 237.181 242.474 236.164L241.525 235.849ZM246.148 240.151C245.348 240.944 244.822 241.23 244.349 241.236C243.866 241.242 243.272 240.959 242.33 240.131L241.67 240.882C242.63 241.726 243.474 242.246 244.361 242.236C245.256 242.225 246.029 241.676 246.852 240.862L246.148 240.151ZM223.722 236.423C224.53 236.961 226.187 238.267 228.182 239.894L228.814 239.119C226.83 237.501 225.133 236.161 224.277 235.591L223.722 236.423ZM228.131 239.167L215.633 252.667L216.367 253.346L228.865 239.846L228.131 239.167ZM215.671 253.383L223.671 260.383L224.329 259.63L216.329 252.63L215.671 253.383ZM236.676 246.983C237.836 247.965 238.836 248.816 239.545 249.421C239.9 249.724 240.182 249.965 240.376 250.131C240.473 250.214 240.547 250.277 240.598 250.321C240.623 250.342 240.642 250.359 240.655 250.37C240.661 250.375 240.666 250.379 240.67 250.382C240.671 250.383 240.672 250.384 240.673 250.385C240.674 250.385 240.674 250.386 240.674 250.386C240.674 250.386 240.674 250.386 240.674 250.386C240.674 250.386 240.674 250.386 240.674 250.386C240.674 250.386 240.674 250.386 241 250.006C241.325 249.627 241.325 249.627 241.325 249.627C241.325 249.627 241.325 249.627 241.325 249.627C241.325 249.627 241.325 249.627 241.325 249.627C241.325 249.626 241.324 249.626 241.324 249.626C241.323 249.625 241.322 249.624 241.32 249.623C241.317 249.62 241.312 249.616 241.306 249.61C241.293 249.599 241.274 249.583 241.248 249.561C241.198 249.518 241.123 249.454 241.026 249.371C240.832 249.205 240.549 248.963 240.194 248.66C239.484 248.054 238.483 247.203 237.322 246.22L236.676 246.983ZM224.359 260.355L237.358 246.949L236.64 246.253L223.641 259.659L224.359 260.355ZM228.182 239.894C230.88 242.094 234.155 244.848 236.676 246.983L237.322 246.22C234.8 244.084 231.519 241.325 228.814 239.119L228.182 239.894ZM237.32 246.217L228.818 239.123L228.178 239.89L236.679 246.985L237.32 246.217Z" fill="#744622"/>
<path d="M316 47.0067C309.5 47.9695 308 56.2479 312 60.5067C315.358 64.0817 323 62.7478 324.5 58.5067C327.5 53.2478 322.5 46.044 316 47.0067Z" fill="#010101"/>
<path d="M234 58.5067C227.5 58.5067 223.5 64.2479 227 70.5068C230.5 75.2479 237 75.2479 240.5 70.5068C243 64.7479 240.5 58.5067 234 58.5067Z" fill="black"/>
<path d="M227 70.5068L226.127 70.9948L226.158 71.0499L226.196 71.1006L227 70.5068ZM240.5 70.5068L241.305 71.1007L241.372 71.0092L241.418 70.9049L240.5 70.5068ZM316 47.0067L316.147 47.996L316 47.0067ZM312 60.5067L312.729 59.8221L312 60.5067ZM324.5 58.5067L323.632 58.0113L323.587 58.089L323.557 58.1733L324.5 58.5067ZM234 57.5067C230.455 57.5067 227.483 59.0805 225.9 61.6327C224.307 64.2023 224.226 67.5947 226.127 70.9948L227.873 70.0187C226.274 67.16 226.443 64.5524 227.6 62.6866C228.768 60.8035 231.046 59.5067 234 59.5067V57.5067ZM226.196 71.1006C230.095 76.3833 237.405 76.3832 241.305 71.1007L239.696 69.9128C236.595 74.1126 230.905 74.1125 227.805 69.9129L226.196 71.1006ZM241.418 70.9049C242.763 67.8057 242.799 64.4936 241.522 61.9047C240.222 59.2698 237.616 57.5067 234 57.5067V59.5067C236.885 59.5067 238.778 60.8642 239.728 62.7896C240.701 64.7611 240.737 67.449 239.583 70.1086L241.418 70.9049ZM315.854 46.0175C312.138 46.5678 309.862 49.2309 309.093 52.2758C308.332 55.2882 309.01 58.7844 311.271 61.1914L312.729 59.8221C310.99 57.9702 310.418 55.1978 311.032 52.7656C311.638 50.3659 313.362 48.4084 316.147 47.996L315.854 46.0175ZM311.271 61.1914C313.251 63.2986 316.383 63.8758 319.11 63.4243C321.821 62.9757 324.524 61.4384 325.443 58.8402L323.557 58.1733C322.976 59.8161 321.109 61.0663 318.784 61.4512C316.476 61.8332 314.108 61.2898 312.729 59.8221L311.271 61.1914ZM325.369 59.0022C327.102 55.9633 326.49 52.4243 324.624 49.8384C322.752 47.2451 319.528 45.4733 315.854 46.0175L316.147 47.996C318.973 47.5774 321.499 48.9262 323.002 51.0089C324.51 53.0989 324.898 55.7912 323.632 58.0113L325.369 59.0022Z" fill="black"/>
<path d="M201 270.007C211.529 273.189 224.714 271.5 225 268.007C225.499 261.909 220.94 256.925 210 252.507C207 251.295 202.985 261.104 201 270.007Z" fill="black"/>
<path d="M225 268.007L227.99 268.251L225 268.007ZM210 252.507L208.876 255.288L210 252.507ZM43.5232 228.379C45.1574 241.453 52.9903 251.848 64.2039 259.734C75.3871 267.599 90.1057 273.109 106.063 276.503C137.943 283.285 175.626 281.797 201.965 272.847L200.035 267.166C174.874 275.716 138.307 277.228 107.312 270.635C91.8318 267.342 77.9567 262.071 67.6555 254.826C57.3847 247.603 50.8426 238.561 49.4768 227.634L43.5232 228.379ZM200.132 272.878C205.816 274.596 212.144 274.991 217.137 274.495C219.622 274.249 221.947 273.766 223.763 273.01C224.667 272.634 225.589 272.131 226.345 271.438C227.112 270.735 227.874 269.673 227.99 268.251L222.01 267.762C222.055 267.213 222.342 266.968 222.292 267.014C222.231 267.07 221.994 267.247 221.457 267.471C220.391 267.915 218.708 268.31 216.545 268.525C212.241 268.952 206.712 268.599 201.868 267.135L200.132 272.878ZM227.99 268.251C228.317 264.255 226.928 260.664 223.959 257.555C221.09 254.55 216.766 252.004 211.124 249.725L208.876 255.288C214.174 257.428 217.599 259.583 219.62 261.699C221.541 263.711 222.182 265.66 222.01 267.762L227.99 268.251ZM211.124 249.725C208.515 248.671 206.41 250.364 205.414 251.431C204.274 252.653 203.272 254.368 202.411 256.173C200.661 259.846 199.098 264.753 198.072 269.354L203.928 270.66C204.887 266.358 206.324 261.908 207.828 258.754C208.594 257.146 209.282 256.08 209.8 255.525C210.463 254.815 209.985 255.736 208.876 255.288L211.124 249.725Z" fill="black"/>
<path d="M276.5 102.507C260.151 112.838 249.691 123.198 230.5 125.007C212.716 141.079 198.5 142.5 180 133.007C171.17 127.394 166.225 123.981 157.5 117.507C148.196 110.54 147.581 105.856 155 96.0067C164 87.5067 171.781 89.0274 180 87.5067C199.667 80.3378 210.713 78.2852 230.5 83.0067C249.951 84.1262 262.421 81.8988 287 73.5067C303 70 310 76.0001 330.5 77.0067C348.5 77.0067 378.649 73.6321 379 79.5067L327.5 96.2479L276.5 102.507Z" fill="#9D6B4D" stroke="#9D6B4D" stroke-width="2"/>
<path d="M3 272.007C8.22273 202.094 16 152.248 43 106.007C81.1767 40.6239 115.04 19.5216 176 7.00666C250.378 -8.06098 332.5 23.2758 354.5 36.5066C384 54.2479 391.5 72.2479 370.5 84.5066C339 99.8827 204.5 116.248 167.5 101.748M278 102C309.581 194.426 315.917 245.872 325.5 330.507" stroke="black" stroke-width="6"/>
</svg>
